<?xml version="1.0" encoding="UTF-8" standalone="no"?>
<!-- Created with Inkscape (http://www.inkscape.org/) -->

<svg
   width="105mm"
   height="57mm"
   viewBox="0 0 105 57"
   version="1.1"
   id="svg5"
   xml:space="preserve"
   inkscape:version="1.4.3 (0d15f75, 2025-12-25)"
   sodipodi:docname="Logo original (noir fond transparent).svg"
   inkscape:export-filename="Logo sans descriptif (blanc fond noir).jpg"
   inkscape:export-xdpi="96"
   inkscape:export-ydpi="96"
   xmlns:inkscape="http://www.inkscape.org/namespaces/inkscape"
   xmlns:sodipodi="http://sodipodi.sourceforge.net/DTD/sodipodi-0.dtd"
   xmlns="http://www.w3.org/2000/svg"
   xmlns:svg="http://www.w3.org/2000/svg"><sodipodi:namedview
     id="namedview7"
     pagecolor="#ffffff"
     bordercolor="#000000"
     borderopacity="0.25"
     inkscape:showpageshadow="2"
     inkscape:pageopacity="0.0"
     inkscape:pagecheckerboard="0"
     inkscape:deskcolor="#d1d1d1"
     inkscape:document-units="mm"
     showgrid="false"
     inkscape:zoom="1.4467453"
     inkscape:cx="264.04095"
     inkscape:cy="234.66466"
     inkscape:window-width="1920"
     inkscape:window-height="991"
     inkscape:window-x="-9"
     inkscape:window-y="-9"
     inkscape:window-maximized="1"
     inkscape:current-layer="layer1" /><defs
     id="defs2"><rect
       x="201.36786"
       y="549.36279"
       width="818.17914"
       height="320.62454"
       id="rect1237" /><rect
       x="207.0164"
       y="335.92645"
       width="147.57263"
       height="62.208603"
       id="rect356" /></defs><g
     inkscape:label="Calque 1"
     inkscape:groupmode="layer"
     id="layer1"><path
       id="path529"
       style="font-variation-settings:'wght' 800;opacity:1;fill:#000000;fill-opacity:1;stroke:none;stroke-width:0.712;stroke-linecap:square;stroke-dasharray:none;stroke-opacity:1"
       d="M 83.231536,0.82300723 C 79.2871,1.9622504 76.03772,4.5015345 74.248645,7.0926488 65.548871,19.692526 51.108231,48.112678 47.381617,45.524691 44.325112,43.402077 52.077898,14.063713 43.481591,4.1400694 38.11942,-2.0500622 30.709385,2.4727175 25.592977,11.945484 25.089166,12.878265 0.87797443,55.071574 0.87797443,55.071574 l 9.21996357,0.416121 c 1.550637,-0.06951 22.425018,-36.792483 29.331531,-36.905146 7.174932,1.793706 -3.862955,31.657345 8.478187,37.68275 6.790303,1.987048 11.369708,-2.614425 22.712468,-20.054457 3.112841,2.094907 8.632476,7.90053 19.727683,4.972418 1.271011,-0.335431 2.241238,-0.839891 3.565219,-1.659058 3.877199,-2.398881 8.820114,-7.076301 10.167404,-14.627418 1.67794,-6.335542 -0.33806,-13.395709 -2.52629,-17.0492865 C 99.106956,3.7615332 92.461995,-1.84296 83.231536,0.82300723 Z M 82.913719,15.597364 c 13.050685,-21.9171014 16.272187,-1.497468 7.788665,12.559574 -6.764481,11.208626 -18.381748,5.566585 -18.381748,5.566585 z"
       sodipodi:nodetypes="ssssscccccsscsscscc" /></g></svg>
